<svg xmlns="http://www.w3.org/2000/svg" xmlns:xlink="http://www.w3.org/1999/xlink" width="181.213" height="62.545" viewBox="0 0 181.213 62.545"><defs><style>.a{fill:none;}.b{fill:#fff;}.c{clip-path:url(#a);}.d{fill:url(#b);}</style><clipPath id="a"><path class="a" d="M223.252,467.29a24.605,24.605,0,0,1,0,20.511Zm-47.024,10.256a24.617,24.617,0,0,1,40.735-18.621q-1.243,2.14-2.668,4.127v35.127a24.111,24.111,0,0,1-2.985,1.666V466.816a46.875,46.875,0,0,1-8.957,7.937v27.376c-.5.032-.992.048-1.494.048s-1-.016-1.494-.048V476.6a42.088,42.088,0,0,1-8.957,3.788v19.456a24.109,24.109,0,0,1-2.985-1.666V481.138a40.819,40.819,0,0,1-8.477.886c-.16,0-.32,0-.479,0v5.78a24.474,24.474,0,0,1-2.24-10.256m41.839-20.623a26.857,26.857,0,0,0-39.6,35.46,27.08,27.08,0,0,0,8.957,8.429,26.675,26.675,0,0,0,11.941,3.564c.5.029.992.041,1.494.041s1-.013,1.494-.041a26.675,26.675,0,0,0,11.941-3.564,27.081,27.081,0,0,0,8.957-8.429,26.815,26.815,0,0,0,0-29.673V441.871a53.726,53.726,0,0,1-5.185,15.051" transform="translate(-173.989 -441.871)"/></clipPath><linearGradient id="b" x1="-0.446" y1="2.446" x2="-0.443" y2="2.446" gradientUnits="objectBoundingBox"><stop offset="0" stop-color="#b48a34"/><stop offset="0.309" stop-color="#fcd451"/><stop offset="0.461" stop-color="#eada86"/><stop offset="0.562" stop-color="#f9d457"/><stop offset="0.576" stop-color="#fcd451"/><stop offset="0.802" stop-color="#c59b3c"/><stop offset="0.969" stop-color="#fcd451"/><stop offset="1" stop-color="#fcd451"/></linearGradient></defs><g transform="translate(-55 -5.746)"><g transform="translate(-118.989 -436.125)"><g transform="translate(238.625 470.79)"><path class="b" d="M405.006,562.356a10.623,10.623,0,0,1-3.818-3.847,10.28,10.28,0,0,1-1.412-5.273,9.97,9.97,0,0,1,1.412-5.157,10.462,10.462,0,0,1,3.818-3.789,10.456,10.456,0,0,1,10.445,0,10.5,10.5,0,0,1,3.8,3.789,9.973,9.973,0,0,1,1.412,5.157,10.282,10.282,0,0,1-1.412,5.273,10.664,10.664,0,0,1-3.8,3.847,10.278,10.278,0,0,1-10.445,0m9.091-2.291a7.87,7.87,0,0,0,3.861-6.829,7.432,7.432,0,0,0-1.051-3.832,7.921,7.921,0,0,0-2.824-2.838,7.4,7.4,0,0,0-3.846-1.051,7.607,7.607,0,0,0-3.9,1.051,7.772,7.772,0,0,0-2.838,2.824,7.481,7.481,0,0,0-1.037,3.847,7.877,7.877,0,0,0,1.037,3.976,7.7,7.7,0,0,0,2.824,2.867,7.58,7.58,0,0,0,3.918,1.052,7.405,7.405,0,0,0,3.861-1.066" transform="translate(-399.776 -542.893)"/><path class="b" d="M494.611,564.212h-12.5V543.9h2.478v17.951h10.027Z" transform="translate(-458.538 -543.61)"/><path class="b" d="M534.474,555.251h.115l5.388-11.352h2.795l-6.915,13.917v6.4h-2.651v-6.4L526.292,543.9h2.795Z" transform="translate(-490.074 -543.611)"/><path class="b" d="M590.667,563.494h-2.478l2.939-20.6h.115l7.664,15.645h.116l7.664-15.645h.115l2.939,20.6h-2.478l-1.7-13.11h-.058l-6.483,13.4h-.116l-6.4-13.4h-.058Z" transform="translate(-534.252 -542.892)"/><path class="b" d="M674.143,564.211V543.9h6.771a9.082,9.082,0,0,1,4.711,1.153,7.634,7.634,0,0,1,2.939,3.039,8.627,8.627,0,0,1,0,8.039,7.634,7.634,0,0,1-2.939,3.04,9.086,9.086,0,0,1-4.711,1.152h-4.293v3.89Zm6.455-6.281a6.793,6.793,0,0,0,3.443-.822,5.587,5.587,0,0,0,2.161-2.146,5.733,5.733,0,0,0,.734-2.823,5.91,5.91,0,0,0-.72-2.838,5.558,5.558,0,0,0-2.146-2.175,6.768,6.768,0,0,0-3.472-.835h-3.976V557.93Z" transform="translate(-595.6 -543.61)"/><path class="b" d="M739.259,562.356a10.622,10.622,0,0,1-3.817-3.847,10.278,10.278,0,0,1-1.412-5.273,9.969,9.969,0,0,1,1.412-5.157,10.462,10.462,0,0,1,3.817-3.789,10.457,10.457,0,0,1,10.445,0,10.505,10.505,0,0,1,3.8,3.789,9.976,9.976,0,0,1,1.412,5.157,10.285,10.285,0,0,1-1.412,5.273,10.668,10.668,0,0,1-3.8,3.847,10.279,10.279,0,0,1-10.445,0m9.091-2.291a7.87,7.87,0,0,0,3.861-6.829,7.433,7.433,0,0,0-1.051-3.832,7.924,7.924,0,0,0-2.824-2.838,7.4,7.4,0,0,0-3.847-1.051,7.608,7.608,0,0,0-3.9,1.051,7.773,7.773,0,0,0-2.838,2.824,7.481,7.481,0,0,0-1.037,3.847,7.877,7.877,0,0,0,1.037,3.976,7.7,7.7,0,0,0,2.824,2.867,7.579,7.579,0,0,0,3.918,1.052,7.4,7.4,0,0,0,3.861-1.066" transform="translate(-638.342 -542.893)"/></g><g transform="translate(173.989 441.871)"><g class="c" transform="translate(0 0)"><rect class="d" width="81.036" height="77.814" transform="matrix(0.5, -0.866, 0.866, 0.5, -27.083, 46.909)"/></g></g></g></g></svg>